# xmcd
#
# Track frame offsets: 
#        150
#        18617
#        37057
#        55202
#        77165
#        98560
#        134505
#        149432
#        166222
#        181347
#        200592
#
# Disc length: 2791 seconds
#
# Revision: 2
# Processed by: cddbd v1.5.1PL2 Copyright (c) Steve Scherf et al.
# Submitted via: ExactAudioCopy v0.95b4
#
DISCID=9a0ae50b
DTITLE=Professor Longhair - Go To The Mardi Gras
DYEAR=1997
DGENRE=Blues
TTITLE0=How Long Has That Train Been Gone
TTITLE1=Mess Around
TTITLE2=Tipatina
TTITLE3=Stompin' With Fess
TTITLE4=Bauldhead - No Buts And No Maybe
TTITLE5=Every Day I Have The Blues
TTITLE6=Hey Little Girl
TTITLE7=Whole Lotta Lovin'
TTITLE8=Go To The Mardi Gras
TTITLE9=Big Chief
TTITLE10=Got My Mojo Working
EXTD=YEAR: 1997
EXTT0=
EXTT1=
EXTT2=
EXTT3=
EXTT4=
EXTT5=
EXTT6=
EXTT7=
EXTT8=
EXTT9=
EXTT10=
PLAYORDER=
